<mxfile host="Electron" agent="Mozilla/5.0 (X11; Linux x86_64) AppleWebKit/537.36 (KHTML, like Gecko) draw.io/26.0.16 Chrome/132.0.6834.196 Electron/34.2.0 Safari/537.36" version="26.0.16">
  <diagram name="Page-1" id="-H_mtQnk-PTXWXPvYvuk">
    <mxGraphModel dx="978" dy="627" grid="1" gridSize="10" guides="1" tooltips="1" connect="1" arrows="1" fold="1" page="1" pageScale="1" pageWidth="1169" pageHeight="827" math="0" shadow="0">
      <root>
        <mxCell id="0" />
        <mxCell id="1" parent="0" />
        <mxCell id="tsb2bhCMfff75Hzze70P-17" style="edgeStyle=orthogonalEdgeStyle;rounded=0;orthogonalLoop=1;jettySize=auto;html=1;entryX=0;entryY=0.5;entryDx=0;entryDy=0;" edge="1" parent="1" source="zA23MoTUsTF4_91t8viU-3" target="2">
          <mxGeometry relative="1" as="geometry" />
        </mxCell>
        <mxCell id="tsb2bhCMfff75Hzze70P-20" style="edgeStyle=orthogonalEdgeStyle;rounded=0;orthogonalLoop=1;jettySize=auto;html=1;" edge="1" parent="1" source="zA23MoTUsTF4_91t8viU-3" target="R_92QvsMTJ9_qTYiDKwA-10">
          <mxGeometry relative="1" as="geometry" />
        </mxCell>
        <mxCell id="tsb2bhCMfff75Hzze70P-18" style="edgeStyle=orthogonalEdgeStyle;rounded=0;orthogonalLoop=1;jettySize=auto;html=1;entryX=0;entryY=0.5;entryDx=0;entryDy=0;" edge="1" parent="1" source="tsb2bhCMfff75Hzze70P-13" target="2">
          <mxGeometry relative="1" as="geometry" />
        </mxCell>
        <mxCell id="tsb2bhCMfff75Hzze70P-21" style="edgeStyle=orthogonalEdgeStyle;rounded=0;orthogonalLoop=1;jettySize=auto;html=1;" edge="1" parent="1" source="tsb2bhCMfff75Hzze70P-13" target="I4N1mkxGIOHRvSwSWNru-1">
          <mxGeometry relative="1" as="geometry" />
        </mxCell>
        <mxCell id="tsb2bhCMfff75Hzze70P-30" value="" style="group" vertex="1" connectable="0" parent="1">
          <mxGeometry x="130" y="290" width="120" height="60" as="geometry" />
        </mxCell>
        <mxCell id="tsb2bhCMfff75Hzze70P-9" value="API Gateway" style="rounded=1;whiteSpace=wrap;html=1;" vertex="1" parent="tsb2bhCMfff75Hzze70P-30">
          <mxGeometry width="120" height="60" as="geometry" />
        </mxCell>
        <mxCell id="tsb2bhCMfff75Hzze70P-10" value="APISIX" style="rounded=1;whiteSpace=wrap;html=1;fillColor=#C3ABD0;" vertex="1" parent="tsb2bhCMfff75Hzze70P-30">
          <mxGeometry x="15" width="90" height="20" as="geometry" />
        </mxCell>
        <mxCell id="tsb2bhCMfff75Hzze70P-31" value="" style="group" vertex="1" connectable="0" parent="1">
          <mxGeometry x="400" y="290" width="120" height="60" as="geometry" />
        </mxCell>
        <mxCell id="tsb2bhCMfff75Hzze70P-22" value="Service Registry" style="rounded=1;whiteSpace=wrap;html=1;" vertex="1" parent="tsb2bhCMfff75Hzze70P-31">
          <mxGeometry width="120" height="60" as="geometry" />
        </mxCell>
        <mxCell id="tsb2bhCMfff75Hzze70P-23" value="Consul" style="rounded=1;whiteSpace=wrap;html=1;fillColor=#C3ABD0;" vertex="1" parent="tsb2bhCMfff75Hzze70P-31">
          <mxGeometry x="15" width="90" height="20" as="geometry" />
        </mxCell>
        <mxCell id="tsb2bhCMfff75Hzze70P-32" value="" style="group" vertex="1" connectable="0" parent="1">
          <mxGeometry x="570" y="290" width="120" height="60" as="geometry" />
        </mxCell>
        <mxCell id="I4N1mkxGIOHRvSwSWNru-1" value="&lt;span style=&quot;&quot;&gt;Кэш&lt;/span&gt;" style="rounded=1;whiteSpace=wrap;html=1;verticalAlign=middle;labelBackgroundColor=#FFFFFF;fontColor=#000000;labelBorderColor=none;textShadow=0;" parent="tsb2bhCMfff75Hzze70P-32" vertex="1">
          <mxGeometry width="120" height="60" as="geometry" />
        </mxCell>
        <mxCell id="R_92QvsMTJ9_qTYiDKwA-10" value="Redis" style="rounded=1;whiteSpace=wrap;html=1;fillColor=#C3ABD0;" parent="tsb2bhCMfff75Hzze70P-32" vertex="1">
          <mxGeometry x="35" width="50" height="20" as="geometry" />
        </mxCell>
        <mxCell id="tsb2bhCMfff75Hzze70P-33" value="" style="group" vertex="1" connectable="0" parent="1">
          <mxGeometry x="570" y="414" width="120" height="60" as="geometry" />
        </mxCell>
        <mxCell id="tsb2bhCMfff75Hzze70P-13" value="pymongo-api" style="rounded=1;whiteSpace=wrap;html=1;" vertex="1" parent="tsb2bhCMfff75Hzze70P-33">
          <mxGeometry width="120" height="60" as="geometry" />
        </mxCell>
        <mxCell id="tsb2bhCMfff75Hzze70P-16" value="Python/FastAPI" style="rounded=1;whiteSpace=wrap;html=1;fillColor=#C3ABD0;" vertex="1" parent="tsb2bhCMfff75Hzze70P-33">
          <mxGeometry x="15" width="90" height="20" as="geometry" />
        </mxCell>
        <mxCell id="tsb2bhCMfff75Hzze70P-34" value="" style="group" vertex="1" connectable="0" parent="1">
          <mxGeometry x="570" y="155" width="120" height="60" as="geometry" />
        </mxCell>
        <mxCell id="zA23MoTUsTF4_91t8viU-3" value="pymongo-api" style="rounded=1;whiteSpace=wrap;html=1;" parent="tsb2bhCMfff75Hzze70P-34" vertex="1">
          <mxGeometry width="120" height="60" as="geometry" />
        </mxCell>
        <mxCell id="R_92QvsMTJ9_qTYiDKwA-11" value="Python/FastAPI" style="rounded=1;whiteSpace=wrap;html=1;fillColor=#C3ABD0;" parent="tsb2bhCMfff75Hzze70P-34" vertex="1">
          <mxGeometry x="15" width="90" height="20" as="geometry" />
        </mxCell>
        <mxCell id="tsb2bhCMfff75Hzze70P-35" value="" style="group" vertex="1" connectable="0" parent="1">
          <mxGeometry x="750" y="215" width="250" height="210" as="geometry" />
        </mxCell>
        <mxCell id="2" value="" style="rounded=1;whiteSpace=wrap;html=1;container=0;" parent="tsb2bhCMfff75Hzze70P-35" vertex="1">
          <mxGeometry width="250" height="210" as="geometry" />
        </mxCell>
        <mxCell id="3" value="Кластер MongoDB" style="rounded=1;whiteSpace=wrap;html=1;fillColor=#C3ABD0;" parent="tsb2bhCMfff75Hzze70P-35" vertex="1">
          <mxGeometry x="70" width="120" height="20" as="geometry" />
        </mxCell>
        <mxCell id="4" value="MongoDB&lt;div&gt;Shard2 Replica&lt;/div&gt;" style="shape=cylinder3;whiteSpace=wrap;html=1;boundedLbl=1;backgroundOutline=1;size=15;container=0;" parent="tsb2bhCMfff75Hzze70P-35" vertex="1">
          <mxGeometry x="100" y="120" width="60" height="80" as="geometry" />
        </mxCell>
        <mxCell id="5" value="MongoDB&lt;div&gt;Shard1&lt;/div&gt;&lt;div&gt;&lt;span style=&quot;background-color: transparent; color: light-dark(rgb(0, 0, 0), rgb(255, 255, 255));&quot;&gt;Replica&lt;/span&gt;&lt;/div&gt;" style="shape=cylinder3;whiteSpace=wrap;html=1;boundedLbl=1;backgroundOutline=1;size=15;container=0;" parent="tsb2bhCMfff75Hzze70P-35" vertex="1">
          <mxGeometry x="100" y="30" width="60" height="80" as="geometry" />
        </mxCell>
        <mxCell id="6" value="MongoDB&lt;div&gt;Shard2 Replica&lt;/div&gt;" style="shape=cylinder3;whiteSpace=wrap;html=1;boundedLbl=1;backgroundOutline=1;size=15;container=0;" parent="tsb2bhCMfff75Hzze70P-35" vertex="1">
          <mxGeometry x="180" y="120" width="60" height="80" as="geometry" />
        </mxCell>
        <mxCell id="7" value="MongoDB&lt;div&gt;Shard1&lt;/div&gt;&lt;div&gt;&lt;span style=&quot;background-color: transparent; color: light-dark(rgb(0, 0, 0), rgb(255, 255, 255));&quot;&gt;Replica&lt;/span&gt;&lt;/div&gt;" style="shape=cylinder3;whiteSpace=wrap;html=1;boundedLbl=1;backgroundOutline=1;size=15;container=0;" parent="tsb2bhCMfff75Hzze70P-35" vertex="1">
          <mxGeometry x="180" y="30" width="60" height="80" as="geometry" />
        </mxCell>
        <mxCell id="8" value="MongoDB&lt;div&gt;Shard1&lt;/div&gt;&lt;div&gt;&lt;span style=&quot;background-color: transparent; color: light-dark(rgb(0, 0, 0), rgb(255, 255, 255));&quot;&gt;Replica&lt;/span&gt;&lt;/div&gt;" style="shape=cylinder3;whiteSpace=wrap;html=1;boundedLbl=1;backgroundOutline=1;size=15;container=0;" parent="tsb2bhCMfff75Hzze70P-35" vertex="1">
          <mxGeometry x="20" y="30" width="60" height="80" as="geometry" />
        </mxCell>
        <mxCell id="9" value="MongoDB&lt;div&gt;Shard2 Replica&lt;/div&gt;" style="shape=cylinder3;whiteSpace=wrap;html=1;boundedLbl=1;backgroundOutline=1;size=15;container=0;" parent="tsb2bhCMfff75Hzze70P-35" vertex="1">
          <mxGeometry x="20" y="120" width="60" height="80" as="geometry" />
        </mxCell>
        <mxCell id="tsb2bhCMfff75Hzze70P-36" style="edgeStyle=orthogonalEdgeStyle;rounded=0;orthogonalLoop=1;jettySize=auto;html=1;" edge="1" parent="1" source="tsb2bhCMfff75Hzze70P-9" target="tsb2bhCMfff75Hzze70P-22">
          <mxGeometry relative="1" as="geometry" />
        </mxCell>
        <mxCell id="tsb2bhCMfff75Hzze70P-47" value="&lt;span style=&quot;background-color: rgb(213, 232, 212);&quot;&gt;Проверка&lt;/span&gt;&lt;div&gt;&lt;span style=&quot;background-color: rgb(213, 232, 212);&quot;&gt;зарегистрированных&lt;/span&gt;&lt;/div&gt;&lt;div&gt;&lt;span style=&quot;background-color: rgb(213, 232, 212);&quot;&gt;сервисов&lt;/span&gt;&lt;/div&gt;" style="edgeLabel;html=1;align=center;verticalAlign=middle;resizable=0;points=[];" vertex="1" connectable="0" parent="tsb2bhCMfff75Hzze70P-36">
          <mxGeometry x="0.075" y="-1" relative="1" as="geometry">
            <mxPoint x="-11" y="-1" as="offset" />
          </mxGeometry>
        </mxCell>
        <mxCell id="tsb2bhCMfff75Hzze70P-39" style="edgeStyle=orthogonalEdgeStyle;rounded=0;orthogonalLoop=1;jettySize=auto;html=1;entryX=1;entryY=0.75;entryDx=0;entryDy=0;" edge="1" parent="1" source="tsb2bhCMfff75Hzze70P-13" target="tsb2bhCMfff75Hzze70P-22">
          <mxGeometry relative="1" as="geometry" />
        </mxCell>
        <mxCell id="tsb2bhCMfff75Hzze70P-41" value="&lt;span style=&quot;background-color: rgb(213, 232, 212);&quot;&gt;Регистрация сервиса&lt;/span&gt;" style="edgeLabel;html=1;align=center;verticalAlign=middle;resizable=0;points=[];" vertex="1" connectable="0" parent="tsb2bhCMfff75Hzze70P-39">
          <mxGeometry x="0.0233" y="-3" relative="1" as="geometry">
            <mxPoint as="offset" />
          </mxGeometry>
        </mxCell>
        <mxCell id="tsb2bhCMfff75Hzze70P-40" style="edgeStyle=orthogonalEdgeStyle;rounded=0;orthogonalLoop=1;jettySize=auto;html=1;entryX=1;entryY=0.25;entryDx=0;entryDy=0;" edge="1" parent="1" source="zA23MoTUsTF4_91t8viU-3" target="tsb2bhCMfff75Hzze70P-22">
          <mxGeometry relative="1" as="geometry" />
        </mxCell>
        <mxCell id="tsb2bhCMfff75Hzze70P-42" value="&lt;span style=&quot;background-color: rgb(213, 232, 212);&quot;&gt;Регистрация сервиса&lt;/span&gt;" style="edgeLabel;html=1;align=center;verticalAlign=middle;resizable=0;points=[];" vertex="1" connectable="0" parent="tsb2bhCMfff75Hzze70P-40">
          <mxGeometry x="-0.0615" y="-1" relative="1" as="geometry">
            <mxPoint as="offset" />
          </mxGeometry>
        </mxCell>
        <mxCell id="tsb2bhCMfff75Hzze70P-45" style="edgeStyle=orthogonalEdgeStyle;rounded=0;orthogonalLoop=1;jettySize=auto;html=1;entryX=0;entryY=0.25;entryDx=0;entryDy=0;" edge="1" parent="1" source="tsb2bhCMfff75Hzze70P-9" target="zA23MoTUsTF4_91t8viU-3">
          <mxGeometry relative="1" as="geometry">
            <mxPoint x="300" y="180" as="targetPoint" />
            <Array as="points">
              <mxPoint x="190" y="170" />
            </Array>
          </mxGeometry>
        </mxCell>
        <mxCell id="tsb2bhCMfff75Hzze70P-46" style="edgeStyle=orthogonalEdgeStyle;rounded=0;orthogonalLoop=1;jettySize=auto;html=1;entryX=0;entryY=0.75;entryDx=0;entryDy=0;" edge="1" parent="1" source="tsb2bhCMfff75Hzze70P-9" target="tsb2bhCMfff75Hzze70P-13">
          <mxGeometry relative="1" as="geometry">
            <Array as="points">
              <mxPoint x="190" y="460" />
              <mxPoint x="435" y="460" />
              <mxPoint x="435" y="459" />
            </Array>
          </mxGeometry>
        </mxCell>
      </root>
    </mxGraphModel>
  </diagram>
</mxfile>
